{"title":"Roman Holiday (1953) DVDRip x264 PoOlLa","uid":8928505,"size":426597361,"categoryP":"video","categoryS":"movies","magnet":"?xt=urn:btih:e7b2f52149fb3081f3ce484c8b4d1c3b6296034d&amp;dn=Roman+Holiday+%281953%29+DVDRip+x264+PoOlLa&amp;tr=udp%3A%2F%2Ftracker.openbittorrent.com%3A80&amp;tr=udp%3A%2F%2Fopen.demonii.com%3A1337&amp;tr=udp%3A%2F%2Ftracker.coppersurfer.tk%3A6969&amp;tr=udp%3A%2F%2Fexodus.desync.com%3A6969","seeders":1,"leechers":0,"uploader":"poolla","files":2,"time":1379414241,"description":"Video\n\nFormat                                   : AVC\nFormat/Info                              : Advanced Video Codec\nFormat profile                           : &lt;a class=&quot;__cf_email__&quot; href=&quot;/cdn-cgi/l/email-protection&quot; data-cfemail=&quot;f4bc9d939cb4b8c6dac5&quot;&gt;[email&amp;#160;protected]&lt;/a&gt;&lt;script cf-hash='f9e31' type=&quot;text/javascript&quot;&gt;\n/* &lt;![CDATA[ */!function(){try{var t=&quot;currentScript&quot;in document?document.currentScript:function(){for(var t=document.getElementsByTagName(&quot;script&quot;),e=t.length;e--;)if(t[e].getAttribute(&quot;cf-hash&quot;))return t[e]}();if(t&amp;&amp;t.previousSibling){var e,r,n,i,c=t.previousSibling,a=c.getAttribute(&quot;data-cfemail&quot;);if(a){for(e=&quot;&quot;,r=parseInt(a.substr(0,2),16),n=2;a.length-n;n+=2)i=parseInt(a.substr(n,2),16)^r,e+=String.fromCharCode(i);e=document.createTextNode(e),c.parentNode.replaceChild(e,c)}}}catch(u){}}();/* ]]&gt; */&lt;/script&gt;\nFormat settings, CABAC                   : Yes\nFormat settings, ReFrames                : 4 frames\nCodec ID                                 : 7\nDuration                                 : 1h 58mn\nBit rate                                 : 400 Kbps\nWidth                                    : 528 pixels\nHeight                                   : 384 pixels\nDisplay aspect ratio                     : 1.375\nFrame rate mode                          : Constant\nFrame rate                               : 23.976 fps\nColor space                              : YUV\nChroma subsampling                       : 4:2:0\nBit depth                                : 8 bits\nScan type                                : Progressive\nBits/(Pixel*Frame)                       : 0.082\nStream size                              : 341 MiB (84%)\nWriting library                          : x264 core 107 r1745 4785e8e\n\nAudio\nFormat                                   : AAC\nFormat profile                           : LC\nDuration                                 : 1h 58mn\nBit rate                                 : 70.5 Kbps\nChannel(s)                               : 2 channels\nChannel positions                        : Front: L R\nSampling rate                            : 44.1 KHz\nCompression mode                         : Lossy\nDelay relative to video                  : 42ms\nStream size                              : 64.2 MiB (16%)\n\nScreenShots\n &lt;a href=&quot;\nhttp://i.imgur.com/4WwMum9.jpg&quot; rel=&quot;nofollow&quot; target=&quot;_NEW&quot;&gt;\nhttp://i.imgur.com/4WwMum9.jpg&lt;/a&gt; &lt;a href=&quot;\nhttp://i.imgur.com/sXmL2Nq.jpg&quot; rel=&quot;nofollow&quot; target=&quot;_NEW&quot;&gt;\nhttp://i.imgur.com/sXmL2Nq.jpg&lt;/a&gt; &lt;a href=&quot;\nhttp://i.imgur.com/xEbqDQP.jpg&quot; rel=&quot;nofollow&quot; target=&quot;_NEW&quot;&gt;\nhttp://i.imgur.com/xEbqDQP.jpg&lt;/a&gt; &lt;a href=&quot;\nhttp://i.imgur.com/SvlGeQj.jpg&quot; rel=&quot;nofollow&quot; target=&quot;_NEW&quot;&gt;\nhttp://i.imgur.com/SvlGeQj.jpg&lt;/a&gt;\n","torrent":{"xt":"urn:btih:e7b2f52149fb3081f3ce484c8b4d1c3b6296034d","amp;dn":"Roman+Holiday+%281953%29+DVDRip+x264+PoOlLa","amp;tr":["udp%3A%2F%2Ftracker.openbittorrent.com%3A80","udp%3A%2F%2Fopen.demonii.com%3A1337","udp%3A%2F%2Ftracker.coppersurfer.tk%3A6969","udp%3A%2F%2Fexodus.desync.com%3A6969"],"infoHash":"e7b2f52149fb3081f3ce484c8b4d1c3b6296034d","infoHashBuffer":{"type":"Buffer","data":[231,178,245,33,73,251,48,129,243,206,72,76,139,77,28,59,98,150,3,77]},"announce":[],"urlList":[]}}